<?xml version="1.0" encoding="UTF-8"?>
<svg id="Capa_1" data-name="Capa 1" xmlns="http://www.w3.org/2000/svg" xmlns:xlink="http://www.w3.org/1999/xlink" viewBox="0 0 3685.04 3905.64">
  <defs>
    <style>
      .cls-1 {
        fill: url(#Degradado_sin_nombre_3-3);
      }

      .cls-2 {
        fill: url(#Degradado_sin_nombre_3-5);
      }

      .cls-3 {
        fill: url(#Degradado_sin_nombre_3-2);
      }

      .cls-4 {
        fill: url(#Degradado_sin_nombre_9);
      }

      .cls-5 {
        fill: url(#Degradado_sin_nombre_3-6);
      }

      .cls-6 {
        fill: url(#Degradado_sin_nombre_3);
      }

      .cls-7 {
        fill: url(#Degradado_sin_nombre_3-4);
      }

      .cls-8 {
        fill: #dd7170;
      }
    </style>
    <linearGradient id="Degradado_sin_nombre_9" data-name="Degradado sin nombre 9" x1="1810.58" y1="1196.43" x2="1810.58" y2="3246.22" gradientUnits="userSpaceOnUse">
      <stop offset="0" stop-color="#f7dd87"/>
      <stop offset=".23" stop-color="#f6d986"/>
      <stop offset=".41" stop-color="#f3cf84"/>
      <stop offset=".59" stop-color="#efbe80"/>
      <stop offset=".75" stop-color="#e9a57b"/>
      <stop offset=".91" stop-color="#e28674"/>
      <stop offset="1" stop-color="#dd7170"/>
    </linearGradient>
    <linearGradient id="Degradado_sin_nombre_3" data-name="Degradado sin nombre 3" x1="2925.74" y1="1220.6" x2="2925.74" y2="3552.61" gradientUnits="userSpaceOnUse">
      <stop offset="0" stop-color="#f7dd87"/>
      <stop offset="1" stop-color="#dd7170"/>
    </linearGradient>
    <linearGradient id="Degradado_sin_nombre_3-2" data-name="Degradado sin nombre 3" x1="759.3" x2="759.3" y2="3552.61" xlink:href="#Degradado_sin_nombre_3"/>
    <linearGradient id="Degradado_sin_nombre_3-3" data-name="Degradado sin nombre 3" x1="1383.13" y1="1601.64" x2="1383.13" y2="3433.89" xlink:href="#Degradado_sin_nombre_3"/>
    <linearGradient id="Degradado_sin_nombre_3-4" data-name="Degradado sin nombre 3" x1="2298.18" y1="1605.38" x2="2298.18" y2="3437.62" xlink:href="#Degradado_sin_nombre_3"/>
    <linearGradient id="Degradado_sin_nombre_3-5" data-name="Degradado sin nombre 3" x1="1821.23" y1="992.85" x2="3137.01" y2="992.85" xlink:href="#Degradado_sin_nombre_3"/>
    <linearGradient id="Degradado_sin_nombre_3-6" data-name="Degradado sin nombre 3" x1="1863.81" y1="1013.49" x2="548.03" y2="1013.49" xlink:href="#Degradado_sin_nombre_3"/>
  </defs>
  <path class="cls-4" d="M1934.9,1498.51c-1.59,2.17,5.12,1240.07-97.96,1747.71,0,0,0,0,0,0-85.39-509.34-111.08-1747.72-111.08-1747.72h-232.59s124.1-302.07,349.26-302.07c225.16,0,285.38,300.36,285.38,300.36l-193,1.73Z"/>
  <path class="cls-6" d="M2714.52,1704.77v1363.67c0,267.4,189.13,484.17,422.44,484.17h0V1220.6h0c-233.31,0-422.44,216.77-422.44,484.17Z"/>
  <path class="cls-3" d="M548.08,1220.6v2332.01h0c233.31,0,422.44-212.52,422.44-474.68v-1382.65c0-262.16-189.13-474.68-422.44-474.68h0Z"/>
  <path class="cls-1" d="M1171.91,1679.26v1556.84c0,109.24,94.57,197.79,211.22,197.79h0c116.65,0,211.22-88.55,211.22-197.79v-1316.49c0-175.61-152.03-317.97-339.56-317.97h0c-45.78,0-82.88,34.75-82.88,77.61Z"/>
  <path class="cls-7" d="M2086.96,1923.34v1316.49c0,109.24,94.57,197.79,211.22,197.79h0c116.65,0,211.22-88.55,211.22-197.79v-1556.84c0-42.86-37.11-77.61-82.88-77.61h0c-187.53,0-339.56,142.36-339.56,317.97Z"/>
  <path class="cls-8" d="M373.4,3714.52h2938.24s-694.06-194.25-1460.21-194.25-1478.03,194.25-1478.03,194.25Z"/>
  <path class="cls-2" d="M1842.56,1794.58c-74.15-272.83-22.63-1664.54,1293.32-1601.38,0,0,67.04,866.3-837.95,1239.36,0,0-384.61,150.54-455.37,362.02Z"/>
  <path class="cls-5" d="M1842.47,1815.22c74.15-272.83,22.63-1664.54-1293.32-1601.38,0,0-67.04,866.3,837.95,1239.36,0,0,384.61,150.54,455.37,362.02Z"/>
  <g>
    <g>
      <g>
        <path d="M2343.32,805.49c13.73,6.94,27.46,13.88,41.19,20.82,34.5,17.44,68.99,34.88,103.49,52.32,51.92,26.25,93.22,70.96,145.14,97.2,4.7,2.37-11.43,60.76-14.13,68.27-10.9,30.33-25.18,60.51-48.22,82.2-20.59,19.39-45.07,33.3-68.55,48.24-41.31,26.28-84.03,48.73-131.07,61.85-20.94,5.84-42.29,10.13-63.85,12.8-20.75,2.57-46.32,5.41-52.11-22.55-2-9.68-.7-20.05,1.03-29.55,1.46-7.99,8.7-16.69,4.42-25.06-2.73-5.33-9.16-6.96-14.79-7.19-5.63-.23-11.65.23-16.51-2.93-4.96-3.23-7.72-9.67-12.97-12.31-9.97-5.01-18.92.62-24.12-12.82-4.91-12.73-2.67-26.93-6.67-39.89-6.52-21.18-23.45-36.09-33.54-55.19-18.22-34.48-1.97-72.85,16.64-101.6,35.3-54.53,77.29-104.25,125.59-145.91,4.19-3.62,8.34-5.24,12.44-5.5,12.33-.8,24.35,10.6,36.56,16.78Z"/>
        <path d="M2522.38,707.78c35.58,13.18,61.79,43.44,82.33,76.3,30.69,49.1,49.58,108.35,40.08,166.74-2.86,17.57-8.17,34.64-8.56,52.66-.19,8.69-13.96,16.14-11.02,26.48,2.28,8.03,2.27,13.71-1.23,19.08-2.94,4.52-10.36,15.79-14.43,7.77-4.07-8.02-1.18-17.32-7.63-20.52-5.18-2.57-11.47,2.22-18.26,2.84-16.74,1.52-35.29-8.59-51.46.21-6.91,3.76-25.02,8.67-26.6-4.25.69-11.9,22.15-5.29,28.25-9.76,16.52-12.11,9.67-49.62-9.83-57.06-9.1-3.47-23.06-.75-28.94,2.79-3.8,3.97-3.66,11.83-9.08,10.4-2.92-.77-9.58-5.21-7.02-9.62l13.12-22.68c-6.05-6.01-11.94-10.89-12.73-18.17-2.07-19.19,13.65-21.88,12.79-37.74-.19-3.47-5.54-12.72-10.47-8.89-6.21,4.81-9.51,13.9-13.79,17.7-6.74,6-18.3-1.53-23.84,2.22-12.71,8.62-22.96,19.99-38.27,3.19,3.23-7.25,9.41-9.74,11.06-21.59-18.9,1.37-27.66-8.4-37.3-22.25-10.33-6.91-39.62-14.74-34.87-32.92,1.38-5.27,8.79-7.8,11.64-15.24-.46-15.64-46.42,12.68-55.22-14.01-5.52-16.74,14.33-27.59,25.22-33.8,29.64-16.9,55.16-39.37,86.83-52.66,30.84-12.95,65.55-19.72,98.67-10.6,3.51.97,7.02,2.1,10.55,3.4Z"/>
      </g>
      <path d="M2207.92,885.23s-161.34,189.64-184.21,539.79c0,0,152.52-166.71,509.48-269.89l-325.27-269.89Z"/>
    </g>
    <g>
      <g>
        <path d="M1378.28,791.71c4.11.27,8.25,1.89,12.44,5.5,48.31,41.66,90.3,91.37,125.59,145.91,18.61,28.75,34.86,67.12,16.64,101.6-10.09,19.09-27.01,34-33.54,55.19-3.99,12.97-1.76,27.17-6.67,39.89-5.19,13.44-14.14,7.81-24.12,12.82-5.25,2.64-8,9.08-12.97,12.31-4.86,3.16-10.88,2.69-16.51,2.93-5.63.23-12.05,1.86-14.79,7.19-4.29,8.37,2.96,17.07,4.42,25.06,1.73,9.5,3.04,19.87,1.03,29.55-5.79,27.96-31.36,25.12-52.11,22.55-21.57-2.67-42.92-6.96-63.85-12.8-47.04-13.12-89.76-35.56-131.07-61.85-23.49-14.95-47.96-28.85-68.55-48.24-23.04-21.7-37.31-51.88-48.22-82.2-2.7-7.51-18.83-65.89-14.13-68.27,51.92-26.25,93.22-70.96,145.14-97.2,34.5-17.44,68.99-34.88,103.49-52.32,13.73-6.94,27.46-13.88,41.19-20.82,12.21-6.17,24.23-17.58,36.56-16.78Z"/>
        <path d="M1173.21,707.37c33.13-9.12,67.83-2.35,98.67,10.6,31.67,13.29,57.19,35.76,86.83,52.66,10.88,6.21,30.74,17.06,25.22,33.8-8.8,26.68-54.76-1.64-55.22,14.01,2.85,7.44,10.26,9.98,11.64,15.24,4.75,18.18-24.53,26.01-34.87,32.92-9.64,13.85-18.4,23.61-37.3,22.25,1.65,11.85,7.83,14.34,11.06,21.59-15.31,16.8-25.56,5.43-38.27-3.19-5.53-3.75-17.1,3.78-23.84-2.22-4.28-3.8-7.58-12.89-13.79-17.7-4.93-3.82-10.28,5.42-10.47,8.89-.86,15.87,14.86,18.56,12.79,37.74-.79,7.28-6.68,12.16-12.73,18.17l13.12,22.68c2.55,4.41-4.1,8.85-7.02,9.62-5.42,1.43-5.28-6.43-9.08-10.4-5.88-3.54-19.84-6.26-28.94-2.79-19.5,7.44-26.35,44.95-9.83,57.06,6.1,4.47,27.56-2.14,28.25,9.76-1.58,12.92-19.69,8.01-26.6,4.25-16.17-8.81-34.72,1.31-51.46-.21-6.79-.62-13.08-5.41-18.26-2.84-6.46,3.2-3.56,12.5-7.63,20.52-4.07,8.02-11.49-3.25-14.43-7.77-3.49-5.37-3.51-11.05-1.23-19.08,2.93-10.33-10.83-17.79-11.02-26.48-.39-18.03-5.7-35.1-8.56-52.66-9.5-58.39,9.39-117.64,40.08-166.74,20.54-32.86,46.75-63.12,82.33-76.3,3.52-1.3,7.04-2.44,10.55-3.4Z"/>
      </g>
      <path d="M1477.12,888.23s161.34,189.64,184.21,539.79c0,0-152.52-166.71-509.48-269.89l325.27-269.89Z"/>
    </g>
  </g>
</svg>