<?xml version="1.0" standalone="no"?>
<!DOCTYPE svg PUBLIC "-//W3C//DTD SVG 20010904//EN"
 "http://www.w3.org/TR/2001/REC-SVG-20010904/DTD/svg10.dtd">
<svg version="1.0" xmlns="http://www.w3.org/2000/svg"
 width="15355.000000pt" height="15355.000000pt" viewBox="0 0 15355.000000 15355.000000"
 preserveAspectRatio="xMidYMid meet">

<g transform="translate(0.000000,15355.000000) scale(0.100000,-0.100000)"
fill="#000000" stroke="none">
<path d="M71870 144404 c-30 -2 -140 -8 -245 -14 -2147 -122 -4151 -772 -5880
-1908 -1950 -1280 -3572 -3178 -4780 -5592 -357 -713 -653 -1420 -949 -2262
l-38 -106 -66 19 c-2037 591 -3986 757 -5932 503 -832 -108 -1687 -312 -2460
-586 -2007 -712 -3756 -1934 -5216 -3643 -651 -763 -1265 -1662 -1786 -2615
-1276 -2336 -2094 -5179 -2343 -8145 -44 -531 -48 -617 -52 -1313 -3 -380 -8
-690 -12 -688 -16 10 -616 127 -846 165 -1563 260 -3111 293 -4475 95 -2120
-307 -4013 -1145 -5626 -2490 -506 -422 -1078 -994 -1510 -1509 -2115 -2524
-3436 -6132 -3874 -10585 -146 -1491 -190 -3243 -112 -4565 15 -271 17 -2224
23 -29265 4 -15936 10 -29013 13 -29060 3 -47 10 -213 16 -370 180 -4869 1436
-9533 3668 -13620 1660 -3040 3825 -5750 6487 -8120 2526 -2249 5494 -4160
8775 -5650 5156 -2342 11009 -3652 17425 -3900 670 -25 1128 -33 1955 -34
1155 0 1839 23 2890 99 5856 425 11737 2210 17355 5270 3829 2085 7504 4747
10630 7699 267 253 1142 1128 1340 1341 176 189 1011 1208 4206 5130 12717
15611 21154 26177 23709 29695 581 800 1367 1990 1902 2880 2161 3592 3108
6840 2858 9798 -246 2891 -1628 5457 -4150 7703 -1231 1096 -2440 1875 -3791
2444 -1743 735 -3661 1039 -5604 890 -3354 -258 -6846 -1856 -9888 -4525 -826
-724 -1603 -1510 -2261 -2285 -89 -104 -219 -252 -291 -329 l-130 -139 -6
4404 c-3 2422 -7 12297 -8 21944 -1 11765 -4 17586 -11 17680 -155 2129 -909
4371 -2108 6270 -1615 2556 -3942 4381 -6772 5313 -999 329 -2012 538 -3130
647 -614 59 -1453 88 -1950 66 -892 -39 -1925 -165 -2579 -316 -85 -19 -156
-35 -158 -35 -2 0 -3 253 -3 563 0 403 -4 619 -15 762 -112 1501 -502 3010
-1161 4501 -114 257 -412 855 -552 1104 -435 780 -912 1474 -1466 2135 -413
492 -990 1073 -1491 1501 -1454 1240 -3205 2130 -5140 2613 -905 225 -1732
348 -2845 422 -153 10 -1416 21 -1540 13z m1118 -10545 c1205 -86 1972 -616
2353 -1625 68 -181 124 -393 181 -684 l22 -115 6 -25220 c5 -24206 6 -25226
23 -25360 82 -633 236 -1163 502 -1721 361 -759 935 -1457 1620 -1967 1141
-852 2599 -1202 3960 -952 384 71 831 201 1180 345 181 75 512 242 685 345
260 156 517 343 756 550 145 126 448 432 563 570 493 591 835 1243 1051 2003
87 303 145 617 182 972 11 102 13 3255 11 16990 -3 15012 -1 16882 12 17020
63 646 199 1430 361 2082 461 1864 1173 3018 2081 3377 211 84 509 141 731
141 805 -1 1415 -150 1877 -458 575 -383 909 -940 1082 -1807 l28 -140 5
-27845 c5 -26276 7 -27852 23 -27969 9 -68 28 -196 42 -285 41 -259 47 -379
37 -701 -22 -699 41 -1249 209 -1834 323 -1122 1013 -2074 1964 -2708 659
-440 1475 -757 2236 -867 341 -50 810 -69 1134 -47 1131 79 2152 489 3020
1212 55 46 174 156 264 244 131 128 4585 5010 9465 10375 530 582 700 760
1014 1064 1470 1418 2861 2329 3965 2596 253 61 419 83 647 83 358 2 621 -59
909 -209 125 -65 226 -136 428 -300 512 -419 697 -669 759 -1025 24 -137 15
-401 -20 -565 -149 -708 -632 -1655 -1654 -3249 -249 -388 -815 -1238 -965
-1450 -1270 -1790 -5290 -6897 -11751 -14930 -4208 -5232 -9607 -11891 -14431
-17800 -418 -511 -838 -1027 -934 -1145 -479 -589 -1883 -1876 -3221 -2952
-2668 -2145 -5595 -3961 -8560 -5311 -3662 -1666 -7383 -2628 -11035 -2852
-1123 -68 -2374 -70 -3760 -5 -3208 151 -6272 658 -9121 1509 -2433 727 -4517
1627 -6449 2786 -2491 1494 -4591 3356 -6232 5525 -963 1273 -1768 2659 -2392
4116 -777 1816 -1284 3783 -1495 5804 -48 454 -74 807 -108 1465 -9 177 -13
6946 -18 29285 -6 26661 -8 29070 -23 29240 -51 592 -44 1614 18 2530 182
2665 791 4826 1592 5647 137 141 230 193 423 237 89 20 121 21 505 21 430 -1
595 -11 895 -56 961 -144 1633 -567 1970 -1239 139 -278 211 -529 250 -874 40
-358 92 -601 211 -993 l49 -162 0 -11118 c0 -9873 2 -11138 15 -11293 130
-1490 881 -2847 2075 -3749 284 -214 523 -361 845 -521 503 -248 981 -399
1535 -484 300 -46 508 -59 885 -53 371 5 551 22 858 77 2028 366 3671 1908
4166 3910 87 349 133 671 151 1040 5 118 7 7338 3 18310 -5 16928 -4 18126 11
18290 145 1507 520 2991 1000 3967 483 979 1085 1529 1806 1649 187 31 677 26
1010 -11 1352 -151 2128 -915 2335 -2300 13 -88 15 -2263 15 -18885 0 -12343
4 -18862 10 -19010 21 -459 81 -831 205 -1260 352 -1215 1150 -2275 2227
-2959 759 -481 1595 -751 2513 -811 88 -6 197 -15 243 -21 155 -20 621 12 947
67 1737 289 3234 1450 3946 3059 223 505 348 970 427 1590 15 120 17 1762 22
22170 l5 22040 23 175 c83 649 153 1068 258 1550 256 1175 611 2111 1049 2770
142 213 254 350 419 515 255 253 502 413 787 508 96 32 266 71 349 80 81 9
592 6 728 -4z"/>
</g>
</svg>
