<?xml version="1.0" standalone="no"?>
<!DOCTYPE svg PUBLIC "-//W3C//DTD SVG 20010904//EN"
 "http://www.w3.org/TR/2001/REC-SVG-20010904/DTD/svg10.dtd">
<svg version="1.0" xmlns="http://www.w3.org/2000/svg"
 width="15355.000000pt" height="15355.000000pt" viewBox="0 0 15355.000000 15355.000000"
 preserveAspectRatio="xMidYMid meet">

<g transform="translate(0.000000,15355.000000) scale(0.100000,-0.100000)"
fill="#000000" stroke="none">
<path d="M70610 140240 c-3222 -98 -6280 -625 -9325 -1609 -2383 -770 -4862
-1896 -6945 -3156 -3157 -1910 -5943 -4300 -8297 -7119 -2354 -2819 -4238
-6037 -5547 -9479 -196 -515 -453 -1245 -546 -1554 -289 -954 -360 -1914 -214
-2898 184 -1238 738 -2427 1572 -3378 678 -773 1538 -1380 2492 -1760 237 -94
347 -131 595 -198 681 -185 1138 -249 1790 -249 418 0 731 26 1107 91 2181
376 4057 1806 4948 3769 83 184 166 397 250 645 116 340 189 546 273 770 742
1976 1788 3816 3100 5458 728 911 1558 1779 2428 2542 1104 968 2173 1717
3499 2452 2568 1423 5416 2270 8330 2478 510 36 654 40 1400 40 844 0 1144
-12 1825 -75 2766 -256 5507 -1111 7965 -2483 1210 -676 2397 -1517 3430
-2431 523 -463 1137 -1071 1601 -1586 1670 -1851 3015 -4063 3888 -6393 761
-2029 1177 -4113 1261 -6317 13 -340 13 -1140 0 -1475 -56 -1450 -244 -2792
-581 -4140 -120 -478 -197 -744 -423 -1461 -133 -421 -223 -864 -272 -1334
-21 -210 -30 -814 -15 -1036 64 -917 301 -1781 711 -2589 690 -1358 1813
-2426 3196 -3040 1564 -695 3365 -723 5009 -80 1857 726 3291 2217 3901 4052
462 1390 857 2949 1129 4448 466 2570 623 5191 469 7825 -107 1839 -374 3683
-809 5585 -91 401 -272 1091 -430 1640 -433 1506 -976 2994 -1618 4425 -356
795 -802 1691 -1219 2450 -2289 4161 -5404 7751 -9183 10586 -5054 3791
-11174 6068 -17505 6514 -306 21 -714 43 -1115 61 -322 13 -1768 20 -2125 9z"/>
<path d="M71730 117953 c-811 -43 -1532 -170 -2257 -399 -1379 -434 -2618
-1189 -3653 -2224 -375 -374 -665 -715 -960 -1125 -987 -1372 -1564 -3012
-1661 -4727 -15 -271 -6 -959 15 -1203 126 -1403 541 -2686 1253 -3875 1099
-1834 2788 -3188 4821 -3866 698 -233 1341 -362 2127 -426 247 -20 1035 -17
1295 5 546 47 977 116 1459 233 1476 359 2805 1054 3971 2078 162 142 594 574
741 742 1043 1184 1720 2538 2028 4054 309 1523 218 3082 -266 4565 -380 1164
-987 2224 -1812 3165 -155 177 -520 546 -694 703 -1528 1377 -3463 2180 -5536
2297 -163 9 -723 11 -871 3z"/>
<path d="M115213 113799 c-1990 -98 -3862 -1096 -5054 -2694 -1097 -1471
-1510 -3378 -1129 -5209 198 -952 616 -1868 1206 -2646 725 -956 1684 -1686
2797 -2129 67 -27 203 -77 302 -111 99 -34 308 -112 465 -174 157 -63 388
-152 513 -200 1502 -573 2981 -1359 4307 -2289 4018 -2819 6868 -7041 7999
-11853 232 -990 393 -2016 471 -3009 50 -649 64 -1067 57 -1770 -5 -535 -11
-705 -37 -1100 -176 -2655 -891 -5267 -2096 -7655 -1460 -2896 -3586 -5376
-6219 -7257 -1310 -935 -2760 -1724 -4260 -2318 -1885 -746 -3889 -1210 -5910
-1370 -827 -65 -1876 -73 -2715 -20 -1680 107 -3316 419 -4945 945 -544 175
-928 260 -1430 314 -331 37 -803 47 -1115 26 -685 -47 -1401 -213 -2065 -480
-215 -86 -665 -306 -860 -420 -1281 -751 -2249 -1876 -2790 -3240 -232 -585
-373 -1171 -442 -1830 -22 -212 -25 -940 -5 -1155 80 -853 304 -1638 680
-2390 636 -1272 1647 -2290 2902 -2924 418 -212 724 -327 1495 -566 2625 -812
5379 -1300 8125 -1440 811 -41 1935 -53 2515 -27 1795 81 3123 203 4420 408
286 45 366 60 820 154 209 44 601 122 870 175 685 134 941 192 1500 340 2763
729 5408 1809 7905 3230 3045 1732 5752 3885 8091 6435 2530 2759 4597 5955
6066 9380 1422 3315 2306 6916 2578 10505 69 909 90 1503 89 2540 0 944 -15
1452 -69 2235 -341 4980 -1809 9825 -4303 14205 -1286 2259 -2852 4384 -4632
6285 -2376 2537 -5145 4684 -8195 6352 -1136 622 -2394 1217 -3602 1704 -919
371 -1968 742 -2408 853 -639 160 -1254 222 -1892 190z"/>
<path d="M45706 104599 c-2685 -58 -5392 -456 -8051 -1183 -593 -162 -1543
-446 -1925 -575 -2237 -754 -4466 -1789 -6505 -3021 -2894 -1748 -5515 -3938
-7676 -6415 -859 -985 -1731 -2106 -2460 -3165 -1303 -1890 -2416 -3924 -3287
-6005 -1385 -3312 -2229 -6832 -2491 -10400 -119 -1619 -116 -3315 9 -4925
333 -4273 1495 -8446 3426 -12310 1077 -2153 2481 -4326 4001 -6193 1111
-1364 2355 -2662 3673 -3832 2952 -2622 6378 -4694 10125 -6125 333 -127 1300
-478 1473 -534 472 -154 951 -251 1457 -296 202 -18 663 -24 880 -11 774 46
1495 211 2210 506 203 83 638 299 820 405 1079 633 1932 1511 2513 2585 337
625 583 1376 686 2096 53 370 61 485 61 939 0 444 -8 575 -56 920 -260 1874
-1322 3567 -2886 4603 -503 333 -956 551 -1604 772 -876 300 -1628 616 -2564
1080 -409 203 -635 322 -975 513 -2142 1205 -4075 2831 -5625 4733 -1228 1505
-2172 3049 -2910 4760 -1266 2932 -1805 6097 -1580 9264 84 1178 274 2352 565
3500 219 861 308 1180 426 1534 554 1655 1351 3278 2327 4741 1342 2011 3057
3776 5032 5181 2617 1861 5653 3069 8830 3513 1855 260 3655 260 5475 0 1139
-162 2437 -454 3425 -769 411 -132 602 -183 889 -240 649 -128 1352 -154 2016
-74 832 99 1681 372 2424 777 1667 910 2853 2438 3275 4222 282 1194 228 2416
-161 3585 -100 302 -310 793 -455 1065 -409 768 -1000 1474 -1693 2026 -531
422 -1147 767 -1802 1008 -536 197 -1736 551 -2613 770 -2841 709 -5786 1039
-8699 975z"/>
<path d="M108680 90283 c-352 -19 -585 -41 -880 -83 -1321 -189 -2587 -674
-3690 -1412 -1698 -1137 -2947 -2809 -3564 -4770 -406 -1290 -514 -2654 -315
-3988 317 -2128 1401 -4093 3030 -5491 1311 -1127 2925 -1848 4639 -2073 464
-61 815 -80 1315 -73 378 6 596 19 920 57 1565 184 3065 784 4323 1730 363
273 626 502 962 839 292 293 490 516 732 828 792 1021 1360 2218 1633 3443
217 974 282 1901 199 2835 -176 1978 -1015 3864 -2360 5310 -983 1056 -2176
1841 -3554 2340 -717 259 -1696 450 -2590 505 -147 9 -657 11 -800 3z"/>
<path d="M44030 81010 c-1266 -71 -2435 -383 -3560 -951 -1134 -572 -2111
-1350 -2930 -2334 -239 -287 -547 -723 -752 -1065 -1005 -1673 -1437 -3642
-1223 -5577 157 -1416 666 -2803 1472 -4006 480 -718 1075 -1372 1748 -1922
769 -629 1708 -1161 2675 -1516 231 -84 373 -125 665 -189 127 -28 273 -62
325 -75 375 -94 885 -183 1295 -225 908 -94 1968 -8 2939 240 1753 446 3319
1409 4516 2776 1194 1364 1954 3094 2155 4904 36 323 45 473 52 830 30 1678
-406 3303 -1280 4769 -665 1116 -1601 2102 -2686 2830 -553 371 -1161 686
-1776 919 -88 34 -203 77 -255 98 -155 59 -517 170 -749 228 -520 132 -986
208 -1533 251 -229 19 -879 27 -1098 15z"/>
<path d="M56441 61229 c-654 -33 -1346 -176 -1960 -405 -1690 -633 -3040
-1920 -3744 -3569 -106 -250 -165 -415 -307 -860 -858 -2701 -1367 -5483
-1510 -8245 -60 -1180 -59 -2434 6 -3615 288 -5321 1903 -10592 4657 -15205
2228 -3731 5123 -6956 8572 -9545 1596 -1199 3223 -2208 4995 -3099 3638
-1830 7509 -2951 11585 -3356 209 -20 230 -21 3355 -18 l3145 3 235 28 c1466
171 2544 350 3835 638 3238 723 6377 1940 9245 3584 2298 1317 4364 2852 6313
4687 460 434 1269 1259 1718 1753 2578 2836 4602 6027 6118 9647 377 900 821
2122 961 2643 95 354 166 756 202 1140 21 221 17 955 -5 1170 -58 548 -156
1003 -321 1490 -579 1714 -1827 3119 -3436 3870 -747 348 -1467 537 -2275 595
-181 13 -700 13 -880 0 -754 -55 -1475 -228 -2170 -521 -194 -81 -602 -285
-780 -389 -1107 -648 -1990 -1572 -2556 -2675 -176 -343 -251 -525 -411 -995
-323 -949 -630 -1690 -1058 -2555 -773 -1561 -1719 -2975 -2865 -4285 -543
-619 -1230 -1308 -1840 -1844 -2294 -2014 -4990 -3465 -7935 -4272 -2611 -716
-5390 -894 -8065 -518 -3188 448 -6214 1657 -8830 3527 -2960 2116 -5267 4962
-6726 8294 -838 1914 -1377 3970 -1583 6038 -79 783 -100 1297 -93 2175 5 616
10 739 42 1205 113 1604 429 3222 930 4765 185 569 275 985 332 1540 25 245
25 968 0 1210 -91 869 -305 1610 -683 2360 -435 864 -1038 1604 -1797 2208
-690 549 -1544 976 -2377 1188 -670 170 -1387 245 -2039 213z"/>
<path d="M81075 53339 c-1923 -68 -3783 -760 -5275 -1963 -339 -274 -758 -671
-1045 -991 -1982 -2211 -2745 -5272 -2029 -8140 532 -2128 1806 -3974 3600
-5217 560 -387 1225 -737 1879 -988 838 -322 1778 -524 2695 -580 239 -14 642
-12 795 4 72 8 175 17 230 21 844 53 1600 201 2379 464 1465 497 2789 1386
3824 2568 879 1004 1515 2146 1867 3353 187 641 285 1183 347 1915 17 204 17
1028 0 1240 -89 1094 -331 2057 -757 3010 -934 2090 -2580 3710 -4667 4593
-1025 434 -2098 671 -3228 712 -288 10 -306 10 -615 -1z"/>
</g>
</svg>
