<?xml version="1.0" standalone="no"?>
<!DOCTYPE svg PUBLIC "-//W3C//DTD SVG 20010904//EN"
 "http://www.w3.org/TR/2001/REC-SVG-20010904/DTD/svg10.dtd">
<svg version="1.0" xmlns="http://www.w3.org/2000/svg"
 width="15355.000000pt" height="15355.000000pt" viewBox="0 0 15355.000000 15355.000000"
 preserveAspectRatio="xMidYMid meet">

<g transform="translate(0.000000,15355.000000) scale(0.100000,-0.100000)"
fill="#000000" stroke="none">
<path d="M43315 137714 c-1185 -28 -2114 -72 -3060 -144 -6312 -484 -11972
-2078 -16870 -4752 -3667 -2003 -6891 -4641 -9506 -7778 -1337 -1605 -2551
-3381 -3512 -5141 -802 -1470 -1688 -3426 -2257 -4989 -1866 -5120 -2651
-10807 -2344 -16980 351 -7069 2170 -14666 5354 -22365 903 -2183 1853 -4242
3013 -6530 803 -1585 1388 -2663 2322 -4280 92 -159 298 -517 458 -795 1178
-2052 2734 -4524 4122 -6550 2482 -3622 5054 -6983 7952 -10391 3223 -3791
7063 -7767 10923 -11310 6284 -5766 13218 -10934 20453 -15243 3670 -2185
8183 -4521 12072 -6248 1379 -613 1700 -732 2375 -887 454 -104 843 -155 1465
-192 499 -29 1234 42 1826 175 522 118 872 237 1544 526 7161 3076 14281 7107
21085 11939 4629 3287 8987 6843 13375 10915 1867 1734 3957 3813 5825 5796
3796 4030 7303 8281 10386 12590 1682 2350 3320 4826 4729 7145 104 171 275
447 380 615 351 558 1182 1987 1802 3100 662 1187 1362 2522 1736 3310 85 179
207 431 272 560 626 1251 1431 2988 2063 4450 1974 4570 3499 9159 4482 13483
1172 5160 1662 10128 1465 14832 -291 6916 -2069 13135 -5265 18415 -629 1040
-1331 2062 -2079 3030 -1347 1744 -2963 3441 -4636 4872 -577 493 -1108 920
-1640 1318 -2165 1619 -4564 2991 -7171 4103 -4213 1796 -8952 2893 -14094
3262 -574 41 -1306 81 -1895 105 -1205 48 -2476 52 -3670 10 -3365 -118 -6684
-504 -10245 -1191 -1622 -313 -3559 -756 -4845 -1108 -2212 -605 -3221 -899
-4645 -1352 -3240 -1032 -6877 -2447 -10220 -3976 l-325 -149 -140 64 c-2220
1016 -4904 2113 -7280 2975 -6716 2438 -13518 3986 -19845 4517 -1211 101
-1724 130 -4100 230 -243 11 -1561 20 -1835 14z m2255 -14833 c2031 -90 3963
-276 5890 -567 6532 -986 13586 -3290 20692 -6760 244 -119 511 -248 593 -286
83 -38 274 -130 425 -203 585 -284 1023 -445 1575 -580 380 -94 741 -153 1165
-192 233 -21 928 -24 1155 -5 653 56 1202 165 1775 354 439 144 551 194 1440
633 831 411 1199 589 1755 852 4432 2095 8910 3750 13140 4858 3974 1040 8092
1698 11705 1870 735 35 969 40 1860 40 900 0 1108 -5 1820 -41 4716 -238 8712
-1270 12010 -3104 2013 -1119 3711 -2519 5141 -4236 979 -1175 1648 -2188
2298 -3479 1972 -3914 2765 -8809 2331 -14385 -482 -6184 -2465 -13054 -5793
-20065 -440 -928 -1196 -2442 -1595 -3195 -802 -1515 -2049 -3664 -3065 -5280
-1162 -1849 -2590 -3958 -3901 -5760 -4655 -6400 -10235 -12496 -16496 -18021
-6463 -5703 -13361 -10544 -20485 -14376 -960 -517 -915 -494 -3627 -1840
l-897 -446 -38 16 c-21 8 -191 88 -378 177 -2413 1151 -4899 2480 -7470 3995
-4470 2634 -8746 5592 -12945 8955 -5532 4432 -10710 9428 -15271 14735 -3467
4035 -6430 8050 -9142 12390 -165 264 -398 635 -517 825 -745 1185 -1689 2807
-2438 4190 -392 725 -906 1733 -1264 2480 -81 168 -234 485 -341 705 -1648
3396 -3020 6880 -4026 10231 -1098 3658 -1779 7217 -2016 10544 -74 1037 -101
1894 -92 2925 6 683 13 916 42 1480 209 3969 1155 7525 2770 10410 65 116 166
300 225 410 281 528 866 1387 1409 2070 615 774 1336 1537 2071 2190 2114
1879 4723 3290 7785 4210 2565 770 5333 1186 8560 1285 357 11 1854 4 2165 -9z"/>
</g>
</svg>
